{
	"asset":{
		"generator":"Khronos glTF Blender I/O v4.2.70",
		"version":"2.0"
	},
	"scene":0,
	"scenes":[
		{
			"name":"Scene",
			"nodes":[
				14
			]
		}
	],
	"nodes":[
		{
			"name":"Head",
			"rotation":[
				-2.1855692367012125e-08,
				-9.043914780568015e-24,
				-1.0808419920704649e-23,
				1
			],
			"translation":[
				9.70587715399246e-24,
				1,
				3.552713678800501e-15
			]
		},
		{
			"name":"FrontLeg(R)",
			"rotation":[
				1.9649687150839756e-14,
				-2.0323028593338677e-08,
				3.9281651709188736e-08,
				1
			],
			"translation":[
				2.6423307986078726e-14,
				0.7586830258369446,
				2.166745515647106e-14
			]
		},
		{
			"children":[
				1
			],
			"name":"UpperLeg(R).1",
			"rotation":[
				1.6967119620403537e-07,
				-1.6967121041489008e-07,
				0.7071067690849304,
				0.7071067690849304
			],
			"translation":[
				9.70587715399246e-24,
				1,
				3.552713678800501e-15
			]
		},
		{
			"name":"FrontLeg(L)",
			"rotation":[
				1.7123909401561832e-08,
				-2.598790160845965e-08,
				7.856330341837747e-08,
				1
			],
			"translation":[
				1.9984014443252818e-15,
				0.7586830258369446,
				-7.993605777301127e-15
			]
		},
		{
			"children":[
				3
			],
			"name":"UpperLeg(L).1",
			"rotation":[
				0.7071067690849304,
				0.7071067690849304,
				-1.880019340205763e-08,
				3.0908619663705394e-08
			],
			"translation":[
				9.70587715399246e-24,
				1,
				3.552713678800501e-15
			]
		},
		{
			"name":"UpperTail",
			"rotation":[
				1.796922587601348e-15,
				6.617444900424222e-24,
				2.216844041642114e-22,
				1
			],
			"translation":[
				2.2136209453099984e-22,
				1.0115773677825928,
				0
			]
		},
		{
			"children":[
				5
			],
			"name":"LowerTail",
			"rotation":[
				2.162598455868192e-08,
				4.371138473402425e-08,
				9.55342626703234e-16,
				1
			],
			"translation":[
				2.2499312661442353e-22,
				1,
				-3.5527141023169746e-15
			]
		},
		{
			"name":"BackLeg(R)",
			"rotation":[
				-1.4287307241237622e-22,
				-1,
				-3.5527141023169746e-15,
				7.549790836947068e-08
			],
			"translation":[
				8.215650382226158e-15,
				0.7586830258369446,
				1.2664656209328534e-14
			]
		},
		{
			"children":[
				7
			],
			"name":"LowerLeg(R).1",
			"rotation":[
				-0.7071067690849304,
				0.7071067690849304,
				1.1520231879558196e-07,
				5.338507591545749e-08
			],
			"translation":[
				2.2499312661442353e-22,
				1,
				-3.5527141023169746e-15
			]
		},
		{
			"name":"BackLeg(L)",
			"rotation":[
				3.5527141023169746e-15,
				-5.960464477539063e-08,
				-1.1448179677733903e-21,
				1
			],
			"translation":[
				-4.884981308350689e-15,
				0.7586830258369446,
				5.559228851727532e-15
			]
		},
		{
			"children":[
				9
			],
			"name":"LowerLeg(L).1",
			"rotation":[
				-5.776358591447206e-08,
				4.0536494161358405e-09,
				-0.7071067690849304,
				0.7071067690849304
			],
			"translation":[
				2.2499312661442353e-22,
				1,
				-3.5527141023169746e-15
			]
		},
		{
			"children":[
				6,
				8,
				10
			],
			"name":"LowerBody",
			"rotation":[
				1,
				2.117582368135751e-22,
				-4.371138828673793e-08,
				4.3481676925694046e-08
			]
		},
		{
			"children":[
				0,
				2,
				4,
				11
			],
			"name":"UpperBody",
			"rotation":[
				1.7763568394002505e-15,
				-6.617444900424222e-24,
				-6.617444505993769e-24,
				1
			]
		},
		{
			"mesh":0,
			"name":"TriaDog",
			"skin":0
		},
		{
			"children":[
				13,
				12
			],
			"name":"Armature",
			"rotation":[
				0.7071068286895752,
				0,
				0,
				0.7071068286895752
			],
			"scale":[
				1.9771101474761963,
				1.9771101474761963,
				1.9771101474761963
			]
		}
	],
	"animations":[
		{
			"channels":[
				{
					"sampler":0,
					"target":{
						"node":12,
						"path":"translation"
					}
				},
				{
					"sampler":1,
					"target":{
						"node":12,
						"path":"rotation"
					}
				},
				{
					"sampler":2,
					"target":{
						"node":12,
						"path":"scale"
					}
				},
				{
					"sampler":3,
					"target":{
						"node":0,
						"path":"translation"
					}
				},
				{
					"sampler":4,
					"target":{
						"node":0,
						"path":"rotation"
					}
				},
				{
					"sampler":5,
					"target":{
						"node":0,
						"path":"scale"
					}
				},
				{
					"sampler":6,
					"target":{
						"node":2,
						"path":"translation"
					}
				},
				{
					"sampler":7,
					"target":{
						"node":2,
						"path":"rotation"
					}
				},
				{
					"sampler":8,
					"target":{
						"node":2,
						"path":"scale"
					}
				},
				{
					"sampler":9,
					"target":{
						"node":1,
						"path":"translation"
					}
				},
				{
					"sampler":10,
					"target":{
						"node":1,
						"path":"rotation"
					}
				},
				{
					"sampler":11,
					"target":{
						"node":1,
						"path":"scale"
					}
				},
				{
					"sampler":12,
					"target":{
						"node":4,
						"path":"translation"
					}
				},
				{
					"sampler":13,
					"target":{
						"node":4,
						"path":"rotation"
					}
				},
				{
					"sampler":14,
					"target":{
						"node":4,
						"path":"scale"
					}
				},
				{
					"sampler":15,
					"target":{
						"node":3,
						"path":"translation"
					}
				},
				{
					"sampler":16,
					"target":{
						"node":3,
						"path":"rotation"
					}
				},
				{
					"sampler":17,
					"target":{
						"node":3,
						"path":"scale"
					}
				},
				{
					"sampler":18,
					"target":{
						"node":11,
						"path":"translation"
					}
				},
				{
					"sampler":19,
					"target":{
						"node":11,
						"path":"rotation"
					}
				},
				{
					"sampler":20,
					"target":{
						"node":11,
						"path":"scale"
					}
				},
				{
					"sampler":21,
					"target":{
						"node":6,
						"path":"translation"
					}
				},
				{
					"sampler":22,
					"target":{
						"node":6,
						"path":"rotation"
					}
				},
				{
					"sampler":23,
					"target":{
						"node":6,
						"path":"scale"
					}
				},
				{
					"sampler":24,
					"target":{
						"node":5,
						"path":"translation"
					}
				},
				{
					"sampler":25,
					"target":{
						"node":5,
						"path":"rotation"
					}
				},
				{
					"sampler":26,
					"target":{
						"node":5,
						"path":"scale"
					}
				},
				{
					"sampler":27,
					"target":{
						"node":8,
						"path":"translation"
					}
				},
				{
					"sampler":28,
					"target":{
						"node":8,
						"path":"rotation"
					}
				},
				{
					"sampler":29,
					"target":{
						"node":8,
						"path":"scale"
					}
				},
				{
					"sampler":30,
					"target":{
						"node":7,
						"path":"translation"
					}
				},
				{
					"sampler":31,
					"target":{
						"node":7,
						"path":"rotation"
					}
				},
				{
					"sampler":32,
					"target":{
						"node":7,
						"path":"scale"
					}
				},
				{
					"sampler":33,
					"target":{
						"node":10,
						"path":"translation"
					}
				},
				{
					"sampler":34,
					"target":{
						"node":10,
						"path":"rotation"
					}
				},
				{
					"sampler":35,
					"target":{
						"node":10,
						"path":"scale"
					}
				},
				{
					"sampler":36,
					"target":{
						"node":9,
						"path":"translation"
					}
				},
				{
					"sampler":37,
					"target":{
						"node":9,
						"path":"rotation"
					}
				},
				{
					"sampler":38,
					"target":{
						"node":9,
						"path":"scale"
					}
				}
			],
			"name":"ArmatureAction",
			"samplers":[
				{
					"input":25,
					"interpolation":"LINEAR",
					"output":26
				},
				{
					"input":25,
					"interpolation":"LINEAR",
					"output":27
				},
				{
					"input":25,
					"interpolation":"LINEAR",
					"output":28
				},
				{
					"input":25,
					"interpolation":"LINEAR",
					"output":29
				},
				{
					"input":25,
					"interpolation":"LINEAR",
					"output":30
				},
				{
					"input":25,
					"interpolation":"LINEAR",
					"output":31
				},
				{
					"input":25,
					"interpolation":"LINEAR",
					"output":32
				},
				{
					"input":25,
					"interpolation":"LINEAR",
					"output":33
				},
				{
					"input":25,
					"interpolation":"LINEAR",
					"output":34
				},
				{
					"input":25,
					"interpolation":"LINEAR",
					"output":35
				},
				{
					"input":25,
					"interpolation":"LINEAR",
					"output":36
				},
				{
					"input":25,
					"interpolation":"LINEAR",
					"output":37
				},
				{
					"input":25,
					"interpolation":"LINEAR",
					"output":38
				},
				{
					"input":25,
					"interpolation":"LINEAR",
					"output":39
				},
				{
					"input":25,
					"interpolation":"LINEAR",
					"output":40
				},
				{
					"input":25,
					"interpolation":"LINEAR",
					"output":41
				},
				{
					"input":25,
					"interpolation":"LINEAR",
					"output":42
				},
				{
					"input":25,
					"interpolation":"LINEAR",
					"output":43
				},
				{
					"input":25,
					"interpolation":"LINEAR",
					"output":44
				},
				{
					"input":25,
					"interpolation":"LINEAR",
					"output":45
				},
				{
					"input":25,
					"interpolation":"LINEAR",
					"output":46
				},
				{
					"input":25,
					"interpolation":"LINEAR",
					"output":47
				},
				{
					"input":25,
					"interpolation":"LINEAR",
					"output":48
				},
				{
					"input":25,
					"interpolation":"LINEAR",
					"output":49
				},
				{
					"input":25,
					"interpolation":"LINEAR",
					"output":50
				},
				{
					"input":25,
					"interpolation":"LINEAR",
					"output":51
				},
				{
					"input":25,
					"interpolation":"LINEAR",
					"output":52
				},
				{
					"input":25,
					"interpolation":"LINEAR",
					"output":53
				},
				{
					"input":25,
					"interpolation":"LINEAR",
					"output":54
				},
				{
					"input":25,
					"interpolation":"LINEAR",
					"output":55
				},
				{
					"input":25,
					"interpolation":"LINEAR",
					"output":56
				},
				{
					"input":25,
					"interpolation":"LINEAR",
					"output":57
				},
				{
					"input":25,
					"interpolation":"LINEAR",
					"output":58
				},
				{
					"input":25,
					"interpolation":"LINEAR",
					"output":59
				},
				{
					"input":25,
					"interpolation":"LINEAR",
					"output":60
				},
				{
					"input":25,
					"interpolation":"LINEAR",
					"output":61
				},
				{
					"input":25,
					"interpolation":"LINEAR",
					"output":62
				},
				{
					"input":25,
					"interpolation":"LINEAR",
					"output":63
				},
				{
					"input":25,
					"interpolation":"LINEAR",
					"output":64
				}
			]
		}
	],
	"materials":[
		{
			"doubleSided":true,
			"name":"Material",
			"pbrMetallicRoughness":{
				"baseColorFactor":[
					0.800000011920929,
					0.800000011920929,
					0.800000011920929,
					1
				],
				"metallicFactor":0,
				"roughnessFactor":0.5
			}
		},
		{
			"doubleSided":true,
			"name":"Material.001",
			"pbrMetallicRoughness":{
				"baseColorFactor":[
					0.800000011920929,
					0.800000011920929,
					0.800000011920929,
					1
				],
				"metallicFactor":0,
				"roughnessFactor":0.5
			}
		},
		{
			"doubleSided":true,
			"name":"Material.002",
			"pbrMetallicRoughness":{
				"baseColorFactor":[
					0.800000011920929,
					0.800000011920929,
					0.800000011920929,
					1
				],
				"metallicFactor":0,
				"roughnessFactor":0.5
			}
		}
	],
	"meshes":[
		{
			"name":"Cube",
			"primitives":[
				{
					"attributes":{
						"POSITION":0,
						"NORMAL":1,
						"TEXCOORD_0":2,
						"COLOR_0":3,
						"COLOR_1":4,
						"JOINTS_0":5,
						"WEIGHTS_0":6
					},
					"indices":7,
					"material":0
				},
				{
					"attributes":{
						"POSITION":8,
						"NORMAL":9,
						"TEXCOORD_0":10,
						"COLOR_0":11,
						"COLOR_1":12,
						"JOINTS_0":13,
						"WEIGHTS_0":14
					},
					"indices":15,
					"material":1
				},
				{
					"attributes":{
						"POSITION":16,
						"NORMAL":17,
						"TEXCOORD_0":18,
						"COLOR_0":19,
						"COLOR_1":20,
						"JOINTS_0":21,
						"WEIGHTS_0":22
					},
					"indices":23,
					"material":2
				}
			]
		}
	],
	"skins":[
		{
			"inverseBindMatrices":24,
			"joints":[
				12,
				0,
				2,
				1,
				4,
				3,
				11,
				6,
				5,
				8,
				7,
				10,
				9
			],
			"name":"Armature"
		}
	],
	"accessors":[
		{
			"bufferView":0,
			"componentType":5126,
			"count":44,
			"max":[
				1.0717767477035522,
				1.0717767477035522,
				4.837036609649658
			],
			"min":[
				-1.0717767477035522,
				-1.0717766284942627,
				-3.9999992847442627
			],
			"type":"VEC3"
		},
		{
			"bufferView":1,
			"componentType":5126,
			"count":44,
			"type":"VEC3"
		},
		{
			"bufferView":2,
			"componentType":5126,
			"count":44,
			"type":"VEC2"
		},
		{
			"bufferView":3,
			"componentType":5121,
			"count":44,
			"normalized":true,
			"type":"VEC4"
		},
		{
			"bufferView":4,
			"componentType":5126,
			"count":44,
			"type":"VEC3"
		},
		{
			"bufferView":5,
			"componentType":5121,
			"count":44,
			"type":"VEC4"
		},
		{
			"bufferView":6,
			"componentType":5126,
			"count":44,
			"type":"VEC4"
		},
		{
			"bufferView":7,
			"componentType":5123,
			"count":48,
			"type":"SCALAR"
		},
		{
			"bufferView":8,
			"componentType":5126,
			"count":44,
			"max":[
				1.0717767477035522,
				1.0717767477035522,
				3.408001184463501
			],
			"min":[
				-1.0717767477035522,
				-1.0717766284942627,
				-5.997093200683594
			],
			"type":"VEC3"
		},
		{
			"bufferView":9,
			"componentType":5126,
			"count":44,
			"type":"VEC3"
		},
		{
			"bufferView":10,
			"componentType":5126,
			"count":44,
			"type":"VEC2"
		},
		{
			"bufferView":11,
			"componentType":5121,
			"count":44,
			"normalized":true,
			"type":"VEC4"
		},
		{
			"bufferView":12,
			"componentType":5126,
			"count":44,
			"type":"VEC3"
		},
		{
			"bufferView":13,
			"componentType":5121,
			"count":44,
			"type":"VEC4"
		},
		{
			"bufferView":14,
			"componentType":5126,
			"count":44,
			"type":"VEC4"
		},
		{
			"bufferView":15,
			"componentType":5123,
			"count":48,
			"type":"SCALAR"
		},
		{
			"bufferView":16,
			"componentType":5126,
			"count":64,
			"max":[
				2.9967470169067383,
				0.7467472553253174,
				2.7467470169067383
			],
			"min":[
				-2.9967470169067383,
				-0.7467473149299622,
				-2.7467470169067383
			],
			"type":"VEC3"
		},
		{
			"bufferView":17,
			"componentType":5126,
			"count":64,
			"type":"VEC3"
		},
		{
			"bufferView":18,
			"componentType":5126,
			"count":64,
			"type":"VEC2"
		},
		{
			"bufferView":19,
			"componentType":5121,
			"count":64,
			"normalized":true,
			"type":"VEC4"
		},
		{
			"bufferView":20,
			"componentType":5126,
			"count":64,
			"type":"VEC3"
		},
		{
			"bufferView":21,
			"componentType":5121,
			"count":64,
			"type":"VEC4"
		},
		{
			"bufferView":22,
			"componentType":5126,
			"count":64,
			"type":"VEC4"
		},
		{
			"bufferView":23,
			"componentType":5123,
			"count":72,
			"type":"SCALAR"
		},
		{
			"bufferView":24,
			"componentType":5126,
			"count":13,
			"type":"MAT4"
		},
		{
			"bufferView":25,
			"componentType":5126,
			"count":1,
			"max":[
				0.041666666666666664
			],
			"min":[
				0.041666666666666664
			],
			"type":"SCALAR"
		},
		{
			"bufferView":26,
			"componentType":5126,
			"count":1,
			"type":"VEC3"
		},
		{
			"bufferView":27,
			"componentType":5126,
			"count":1,
			"type":"VEC4"
		},
		{
			"bufferView":28,
			"componentType":5126,
			"count":1,
			"type":"VEC3"
		},
		{
			"bufferView":29,
			"componentType":5126,
			"count":1,
			"type":"VEC3"
		},
		{
			"bufferView":30,
			"componentType":5126,
			"count":1,
			"type":"VEC4"
		},
		{
			"bufferView":31,
			"componentType":5126,
			"count":1,
			"type":"VEC3"
		},
		{
			"bufferView":32,
			"componentType":5126,
			"count":1,
			"type":"VEC3"
		},
		{
			"bufferView":33,
			"componentType":5126,
			"count":1,
			"type":"VEC4"
		},
		{
			"bufferView":34,
			"componentType":5126,
			"count":1,
			"type":"VEC3"
		},
		{
			"bufferView":35,
			"componentType":5126,
			"count":1,
			"type":"VEC3"
		},
		{
			"bufferView":36,
			"componentType":5126,
			"count":1,
			"type":"VEC4"
		},
		{
			"bufferView":37,
			"componentType":5126,
			"count":1,
			"type":"VEC3"
		},
		{
			"bufferView":38,
			"componentType":5126,
			"count":1,
			"type":"VEC3"
		},
		{
			"bufferView":39,
			"componentType":5126,
			"count":1,
			"type":"VEC4"
		},
		{
			"bufferView":40,
			"componentType":5126,
			"count":1,
			"type":"VEC3"
		},
		{
			"bufferView":41,
			"componentType":5126,
			"count":1,
			"type":"VEC3"
		},
		{
			"bufferView":42,
			"componentType":5126,
			"count":1,
			"type":"VEC4"
		},
		{
			"bufferView":43,
			"componentType":5126,
			"count":1,
			"type":"VEC3"
		},
		{
			"bufferView":44,
			"componentType":5126,
			"count":1,
			"type":"VEC3"
		},
		{
			"bufferView":45,
			"componentType":5126,
			"count":1,
			"type":"VEC4"
		},
		{
			"bufferView":46,
			"componentType":5126,
			"count":1,
			"type":"VEC3"
		},
		{
			"bufferView":47,
			"componentType":5126,
			"count":1,
			"type":"VEC3"
		},
		{
			"bufferView":48,
			"componentType":5126,
			"count":1,
			"type":"VEC4"
		},
		{
			"bufferView":49,
			"componentType":5126,
			"count":1,
			"type":"VEC3"
		},
		{
			"bufferView":50,
			"componentType":5126,
			"count":1,
			"type":"VEC3"
		},
		{
			"bufferView":51,
			"componentType":5126,
			"count":1,
			"type":"VEC4"
		},
		{
			"bufferView":52,
			"componentType":5126,
			"count":1,
			"type":"VEC3"
		},
		{
			"bufferView":53,
			"componentType":5126,
			"count":1,
			"type":"VEC3"
		},
		{
			"bufferView":54,
			"componentType":5126,
			"count":1,
			"type":"VEC4"
		},
		{
			"bufferView":55,
			"componentType":5126,
			"count":1,
			"type":"VEC3"
		},
		{
			"bufferView":56,
			"componentType":5126,
			"count":1,
			"type":"VEC3"
		},
		{
			"bufferView":57,
			"componentType":5126,
			"count":1,
			"type":"VEC4"
		},
		{
			"bufferView":58,
			"componentType":5126,
			"count":1,
			"type":"VEC3"
		},
		{
			"bufferView":59,
			"componentType":5126,
			"count":1,
			"type":"VEC3"
		},
		{
			"bufferView":60,
			"componentType":5126,
			"count":1,
			"type":"VEC4"
		},
		{
			"bufferView":61,
			"componentType":5126,
			"count":1,
			"type":"VEC3"
		},
		{
			"bufferView":62,
			"componentType":5126,
			"count":1,
			"type":"VEC3"
		},
		{
			"bufferView":63,
			"componentType":5126,
			"count":1,
			"type":"VEC4"
		},
		{
			"bufferView":64,
			"componentType":5126,
			"count":1,
			"type":"VEC3"
		}
	],
	"bufferViews":[
		{
			"buffer":0,
			"byteLength":528,
			"byteOffset":0,
			"target":34962
		},
		{
			"buffer":0,
			"byteLength":528,
			"byteOffset":528,
			"target":34962
		},
		{
			"buffer":0,
			"byteLength":352,
			"byteOffset":1056,
			"target":34962
		},
		{
			"buffer":0,
			"byteLength":176,
			"byteOffset":1408,
			"target":34962
		},
		{
			"buffer":0,
			"byteLength":528,
			"byteOffset":1584,
			"target":34962
		},
		{
			"buffer":0,
			"byteLength":176,
			"byteOffset":2112,
			"target":34962
		},
		{
			"buffer":0,
			"byteLength":704,
			"byteOffset":2288,
			"target":34962
		},
		{
			"buffer":0,
			"byteLength":96,
			"byteOffset":2992,
			"target":34963
		},
		{
			"buffer":0,
			"byteLength":528,
			"byteOffset":3088,
			"target":34962
		},
		{
			"buffer":0,
			"byteLength":528,
			"byteOffset":3616,
			"target":34962
		},
		{
			"buffer":0,
			"byteLength":352,
			"byteOffset":4144,
			"target":34962
		},
		{
			"buffer":0,
			"byteLength":176,
			"byteOffset":4496,
			"target":34962
		},
		{
			"buffer":0,
			"byteLength":528,
			"byteOffset":4672,
			"target":34962
		},
		{
			"buffer":0,
			"byteLength":176,
			"byteOffset":5200,
			"target":34962
		},
		{
			"buffer":0,
			"byteLength":704,
			"byteOffset":5376,
			"target":34962
		},
		{
			"buffer":0,
			"byteLength":96,
			"byteOffset":6080,
			"target":34963
		},
		{
			"buffer":0,
			"byteLength":768,
			"byteOffset":6176,
			"target":34962
		},
		{
			"buffer":0,
			"byteLength":768,
			"byteOffset":6944,
			"target":34962
		},
		{
			"buffer":0,
			"byteLength":512,
			"byteOffset":7712,
			"target":34962
		},
		{
			"buffer":0,
			"byteLength":256,
			"byteOffset":8224,
			"target":34962
		},
		{
			"buffer":0,
			"byteLength":768,
			"byteOffset":8480,
			"target":34962
		},
		{
			"buffer":0,
			"byteLength":256,
			"byteOffset":9248,
			"target":34962
		},
		{
			"buffer":0,
			"byteLength":1024,
			"byteOffset":9504,
			"target":34962
		},
		{
			"buffer":0,
			"byteLength":144,
			"byteOffset":10528,
			"target":34963
		},
		{
			"buffer":0,
			"byteLength":832,
			"byteOffset":10672
		},
		{
			"buffer":0,
			"byteLength":4,
			"byteOffset":11504
		},
		{
			"buffer":0,
			"byteLength":12,
			"byteOffset":11508
		},
		{
			"buffer":0,
			"byteLength":16,
			"byteOffset":11520
		},
		{
			"buffer":0,
			"byteLength":12,
			"byteOffset":11536
		},
		{
			"buffer":0,
			"byteLength":12,
			"byteOffset":11548
		},
		{
			"buffer":0,
			"byteLength":16,
			"byteOffset":11560
		},
		{
			"buffer":0,
			"byteLength":12,
			"byteOffset":11576
		},
		{
			"buffer":0,
			"byteLength":12,
			"byteOffset":11588
		},
		{
			"buffer":0,
			"byteLength":16,
			"byteOffset":11600
		},
		{
			"buffer":0,
			"byteLength":12,
			"byteOffset":11616
		},
		{
			"buffer":0,
			"byteLength":12,
			"byteOffset":11628
		},
		{
			"buffer":0,
			"byteLength":16,
			"byteOffset":11640
		},
		{
			"buffer":0,
			"byteLength":12,
			"byteOffset":11656
		},
		{
			"buffer":0,
			"byteLength":12,
			"byteOffset":11668
		},
		{
			"buffer":0,
			"byteLength":16,
			"byteOffset":11680
		},
		{
			"buffer":0,
			"byteLength":12,
			"byteOffset":11696
		},
		{
			"buffer":0,
			"byteLength":12,
			"byteOffset":11708
		},
		{
			"buffer":0,
			"byteLength":16,
			"byteOffset":11720
		},
		{
			"buffer":0,
			"byteLength":12,
			"byteOffset":11736
		},
		{
			"buffer":0,
			"byteLength":12,
			"byteOffset":11748
		},
		{
			"buffer":0,
			"byteLength":16,
			"byteOffset":11760
		},
		{
			"buffer":0,
			"byteLength":12,
			"byteOffset":11776
		},
		{
			"buffer":0,
			"byteLength":12,
			"byteOffset":11788
		},
		{
			"buffer":0,
			"byteLength":16,
			"byteOffset":11800
		},
		{
			"buffer":0,
			"byteLength":12,
			"byteOffset":11816
		},
		{
			"buffer":0,
			"byteLength":12,
			"byteOffset":11828
		},
		{
			"buffer":0,
			"byteLength":16,
			"byteOffset":11840
		},
		{
			"buffer":0,
			"byteLength":12,
			"byteOffset":11856
		},
		{
			"buffer":0,
			"byteLength":12,
			"byteOffset":11868
		},
		{
			"buffer":0,
			"byteLength":16,
			"byteOffset":11880
		},
		{
			"buffer":0,
			"byteLength":12,
			"byteOffset":11896
		},
		{
			"buffer":0,
			"byteLength":12,
			"byteOffset":11908
		},
		{
			"buffer":0,
			"byteLength":16,
			"byteOffset":11920
		},
		{
			"buffer":0,
			"byteLength":12,
			"byteOffset":11936
		},
		{
			"buffer":0,
			"byteLength":12,
			"byteOffset":11948
		},
		{
			"buffer":0,
			"byteLength":16,
			"byteOffset":11960
		},
		{
			"buffer":0,
			"byteLength":12,
			"byteOffset":11976
		},
		{
			"buffer":0,
			"byteLength":12,
			"byteOffset":11988
		},
		{
			"buffer":0,
			"byteLength":16,
			"byteOffset":12000
		},
		{
			"buffer":0,
			"byteLength":12,
			"byteOffset":12016
		}
	],
	"buffers":[
		{
			"byteLength":12028,
			"uri":"data:application/octet-stream;base64,"
		}
	]
}
