# Blender 4.3.0
# www.blender.org
o Body
v 0.763329 -0.821427 1.585558
v 0.763329 -0.821427 -1.585558
v -0.763329 -0.821427 1.585558
v -0.763329 -0.821427 -1.585558
v 0.763329 0.821427 1.585558
v 0.763329 0.821427 -1.585558
v -0.763329 0.821427 1.585558
v -0.763329 0.821427 -1.585558
vn -0.0000 -0.0000 1.0000
vn -1.0000 -0.0000 -0.0000
vn -0.0000 1.0000 -0.0000
vn -0.0000 -0.0000 -1.0000
vn -0.0000 -1.0000 -0.0000
vn 1.0000 -0.0000 -0.0000
vt 0.875000 0.500000
vt 0.625000 0.750000
vt 0.625000 0.500000
vt 0.375000 1.000000
vt 0.375000 0.750000
vt 0.625000 0.000000
vt 0.375000 0.250000
vt 0.375000 0.000000
vt 0.375000 0.500000
vt 0.125000 0.750000
vt 0.125000 0.500000
vt 0.625000 0.250000
vt 0.875000 0.750000
vt 0.625000 1.000000
s 0
f 5/1/1 3/2/1 1/3/1
f 3/2/2 8/4/2 4/5/2
f 7/6/3 6/7/3 8/8/3
f 2/9/4 8/10/4 6/11/4
f 1/3/5 4/5/5 2/9/5
f 5/12/6 2/9/6 6/7/6
f 5/1/1 7/13/1 3/2/1
f 3/2/2 7/14/2 8/4/2
f 7/6/3 5/12/3 6/7/3
f 2/9/4 4/5/4 8/10/4
f 1/3/5 3/2/5 4/5/5
f 5/12/6 1/3/6 2/9/6
o Head
v -1.229391 1.703706 1.580685
v -1.229391 1.703706 3.128029
v 1.229391 1.703706 1.580685
v 1.229391 1.703706 3.128029
v -1.229391 -1.703706 1.580685
v -1.229391 -1.703706 3.128029
v 1.229391 -1.703706 1.580685
v 1.229391 -1.703706 3.128029
vn -0.0000 1.0000 -0.0000
vn 1.0000 -0.0000 -0.0000
vn -0.0000 -1.0000 -0.0000
vn -1.0000 -0.0000 -0.0000
vn -0.0000 -0.0000 -1.0000
vn -0.0000 -0.0000 1.0000
vt 0.625000 0.000000
vt 0.375000 0.250000
vt 0.375000 0.000000
vt 0.625000 0.250000
vt 0.375000 0.500000
vt 0.625000 0.500000
vt 0.375000 0.750000
vt 0.625000 0.750000
vt 0.375000 1.000000
vt 0.125000 0.750000
vt 0.125000 0.500000
vt 0.875000 0.500000
vt 0.625000 1.000000
vt 0.875000 0.750000
s 0
f 10/15/7 11/16/7 9/17/7
f 12/18/8 15/19/8 11/16/8
f 16/20/9 13/21/9 15/19/9
f 14/22/10 9/23/10 13/21/10
f 15/19/11 9/24/11 11/25/11
f 12/26/12 14/22/12 16/20/12
f 10/15/7 12/18/7 11/16/7
f 12/18/8 16/20/8 15/19/8
f 16/20/9 14/22/9 13/21/9
f 14/22/10 10/27/10 9/23/10
f 15/19/11 13/21/11 9/24/11
f 12/26/12 10/28/12 14/22/12
o Leg.R
v -0.274232 0.707995 -2.696887
v -0.274232 0.707995 -1.593729
v 0.274233 0.707995 -2.696887
v 0.274233 0.707995 -1.593729
v -0.274232 0.161469 -2.696887
v -0.274232 0.161469 -1.593729
v 0.274233 0.161469 -2.696887
v 0.274233 0.161469 -1.593729
vn -0.0000 1.0000 -0.0000
vn 1.0000 -0.0000 -0.0000
vn -0.0000 -1.0000 -0.0000
vn -1.0000 -0.0000 -0.0000
vn -0.0000 -0.0000 -1.0000
vn -0.0000 -0.0000 1.0000
vt 0.625000 0.000000
vt 0.375000 0.250000
vt 0.375000 0.000000
vt 0.625000 0.250000
vt 0.375000 0.500000
vt 0.625000 0.500000
vt 0.375000 0.750000
vt 0.625000 0.750000
vt 0.375000 1.000000
vt 0.125000 0.750000
vt 0.125000 0.500000
vt 0.875000 0.500000
vt 0.625000 1.000000
vt 0.875000 0.750000
s 0
f 18/29/13 19/30/13 17/31/13
f 20/32/14 23/33/14 19/30/14
f 24/34/15 21/35/15 23/33/15
f 22/36/16 17/37/16 21/35/16
f 23/33/17 17/38/17 19/39/17
f 20/40/18 22/36/18 24/34/18
f 18/29/13 20/32/13 19/30/13
f 20/32/14 24/34/14 23/33/14
f 24/34/15 22/36/15 21/35/15
f 22/36/16 18/41/16 17/37/16
f 23/33/17 21/35/17 17/38/17
f 20/40/18 18/42/18 22/36/18
o Leg.L
v -0.274232 -0.161469 -2.696887
v -0.274232 -0.161469 -1.593729
v 0.274233 -0.161469 -2.696887
v 0.274233 -0.161469 -1.593729
v -0.274232 -0.707995 -2.696887
v -0.274232 -0.707995 -1.593729
v 0.274233 -0.707995 -2.696887
v 0.274233 -0.707995 -1.593729
vn -0.0000 1.0000 -0.0000
vn 1.0000 -0.0000 -0.0000
vn -0.0000 -1.0000 -0.0000
vn -1.0000 -0.0000 -0.0000
vn -0.0000 -0.0000 -1.0000
vn -0.0000 -0.0000 1.0000
vt 0.625000 0.000000
vt 0.375000 0.250000
vt 0.375000 0.000000
vt 0.625000 0.250000
vt 0.375000 0.500000
vt 0.625000 0.500000
vt 0.375000 0.750000
vt 0.625000 0.750000
vt 0.375000 1.000000
vt 0.125000 0.750000
vt 0.125000 0.500000
vt 0.875000 0.500000
vt 0.625000 1.000000
vt 0.875000 0.750000
s 0
f 26/43/19 27/44/19 25/45/19
f 28/46/20 31/47/20 27/44/20
f 32/48/21 29/49/21 31/47/21
f 30/50/22 25/51/22 29/49/22
f 31/47/23 25/52/23 27/53/23
f 28/54/24 30/50/24 32/48/24
f 26/43/19 28/46/19 27/44/19
f 28/46/20 32/48/20 31/47/20
f 32/48/21 30/50/21 29/49/21
f 30/50/22 26/55/22 25/51/22
f 31/47/23 29/49/23 25/52/23
f 28/54/24 26/56/24 30/50/24
o Wing.R
v -0.268994 5.114810 0.774520
v -0.268994 5.114810 1.312508
v 0.268994 5.114810 0.774520
v 0.268994 5.114810 1.312508
v -0.268994 0.798990 0.774520
v -0.268994 0.798990 1.312508
v 0.268994 0.798990 0.774520
v 0.268994 0.798990 1.312508
vn -0.0000 1.0000 -0.0000
vn 1.0000 -0.0000 -0.0000
vn -0.0000 -1.0000 -0.0000
vn -1.0000 -0.0000 -0.0000
vn -0.0000 -0.0000 -1.0000
vn -0.0000 -0.0000 1.0000
vt 0.625000 0.000000
vt 0.375000 0.250000
vt 0.375000 0.000000
vt 0.625000 0.250000
vt 0.375000 0.500000
vt 0.625000 0.500000
vt 0.375000 0.750000
vt 0.625000 0.750000
vt 0.375000 1.000000
vt 0.125000 0.750000
vt 0.125000 0.500000
vt 0.875000 0.500000
vt 0.625000 1.000000
vt 0.875000 0.750000
s 0
f 34/57/25 35/58/25 33/59/25
f 36/60/26 39/61/26 35/58/26
f 40/62/27 37/63/27 39/61/27
f 38/64/28 33/65/28 37/63/28
f 39/61/29 33/66/29 35/67/29
f 36/68/30 38/64/30 40/62/30
f 34/57/25 36/60/25 35/58/25
f 36/60/26 40/62/26 39/61/26
f 40/62/27 38/64/27 37/63/27
f 38/64/28 34/69/28 33/65/28
f 39/61/29 37/63/29 33/66/29
f 36/68/30 34/70/30 38/64/30
o Wing.L
v -0.268994 -5.114810 1.312508
v -0.268994 -5.114810 0.774521
v 0.268994 -5.114810 1.312508
v 0.268994 -5.114810 0.774521
v -0.268994 -0.798990 1.312508
v -0.268994 -0.798990 0.774520
v 0.268994 -0.798990 1.312508
v 0.268994 -0.798990 0.774520
vn -0.0000 -1.0000 -0.0000
vn 1.0000 -0.0000 -0.0000
vn -0.0000 1.0000 -0.0000
vn -1.0000 -0.0000 -0.0000
vn -0.0000 -0.0000 1.0000
vn -0.0000 -0.0000 -1.0000
vt 0.625000 0.000000
vt 0.375000 0.250000
vt 0.375000 0.000000
vt 0.625000 0.250000
vt 0.375000 0.500000
vt 0.625000 0.500000
vt 0.375000 0.750000
vt 0.625000 0.750000
vt 0.375000 1.000000
vt 0.125000 0.750000
vt 0.125000 0.500000
vt 0.875000 0.500000
vt 0.625000 1.000000
vt 0.875000 0.750000
s 0
f 42/71/31 43/72/31 41/73/31
f 44/74/32 47/75/32 43/72/32
f 48/76/33 45/77/33 47/75/33
f 46/78/34 41/79/34 45/77/34
f 47/75/35 41/80/35 43/81/35
f 44/82/36 46/78/36 48/76/36
f 42/71/31 44/74/31 43/72/31
f 44/74/32 48/76/32 47/75/32
f 48/76/33 46/78/33 45/77/33
f 46/78/34 42/83/34 41/79/34
f 47/75/35 45/77/35 41/80/35
f 44/82/36 42/84/36 46/78/36
o WingFab.R
v 0.000000 3.877357 -1.940822
v -0.194333 4.795964 0.772716
v 0.194333 4.795964 0.772716
v 0.000000 1.997196 -2.473841
v -0.194333 0.965180 0.772716
v 0.194333 0.965180 0.772716
v 0.000000 2.869231 -0.925817
vn -0.0000 0.9472 -0.3207
vn 0.9935 -0.0000 -0.1137
vn -0.0000 -0.9530 -0.3029
vn -0.9935 -0.0000 -0.1137
vn -0.0000 -0.0000 1.0000
vn 0.9971 -0.0536 -0.0533
vn 0.9970 0.0677 -0.0381
vn -0.9970 0.0677 -0.0381
vn -0.9971 -0.0536 -0.0533
vt 0.375000 0.000000
vt 0.625000 0.000000
vt 0.625000 0.250000
vt 0.625000 0.500000
vt 0.375000 0.375000
vt 0.375000 0.500000
vt 0.625000 0.750000
vt 0.625000 1.000000
vt 0.375000 0.875000
vt 0.875000 0.500000
vt 0.375000 0.250000
vt 0.375000 0.750000
vt 0.375000 1.000000
vt 0.875000 0.750000
s 0
f 49/85/37 50/86/37 51/87/37
f 51/87/38 54/88/38 55/89/38
f 52/90/39 54/88/39 53/91/39
f 53/91/40 50/92/40 55/93/40
f 51/94/41 53/91/41 54/88/41
f 55/89/42 49/95/42 51/87/42
f 54/88/43 52/90/43 55/89/43
f 55/93/44 52/96/44 53/91/44
f 50/92/45 49/97/45 55/93/45
f 51/94/41 50/98/41 53/91/41
o WingFab.L
v -0.000001 -3.877354 -1.940822
v 0.194333 -4.795962 0.772716
v -0.194334 -4.795962 0.772716
v -0.000000 -1.997194 -2.473841
v 0.194334 -0.965178 0.772716
v -0.194333 -0.965178 0.772716
v -0.000000 -2.869229 -0.925817
vn -0.0000 -0.9472 -0.3207
vn -0.9935 -0.0000 -0.1137
vn -0.0000 0.9530 -0.3029
vn 0.9935 -0.0000 -0.1137
vn -0.0000 -0.0000 1.0000
vn -0.9971 0.0536 -0.0533
vn -0.9970 -0.0677 -0.0381
vn 0.9970 -0.0677 -0.0381
vn 0.9971 0.0536 -0.0533
vt 0.375000 0.000000
vt 0.625000 0.000000
vt 0.625000 0.250000
vt 0.625000 0.500000
vt 0.375000 0.375000
vt 0.375000 0.500000
vt 0.625000 0.750000
vt 0.625000 1.000000
vt 0.375000 0.875000
vt 0.875000 0.500000
vt 0.375000 0.250000
vt 0.375000 0.750000
vt 0.375000 1.000000
vt 0.875000 0.750000
s 0
f 56/99/46 57/100/46 58/101/46
f 58/101/47 61/102/47 62/103/47
f 59/104/48 61/102/48 60/105/48
f 60/105/49 57/106/49 62/107/49
f 58/108/50 60/105/50 61/102/50
f 62/103/51 56/109/51 58/101/51
f 61/102/52 59/104/52 62/103/52
f 62/107/53 59/110/53 60/105/53
f 57/106/54 56/111/54 62/107/54
f 58/108/50 57/112/50 60/105/50
o Ear.R
v -0.274232 1.407993 3.094393
v -0.274232 1.407993 4.197552
v 0.274233 1.407993 3.094393
v 0.274233 1.407993 4.197552
v -0.274232 0.861467 3.094393
v -0.274232 0.861467 4.197552
v 0.274233 0.861467 3.094393
v 0.274233 0.861467 4.197552
vn -0.0000 1.0000 -0.0000
vn 1.0000 -0.0000 -0.0000
vn -0.0000 -1.0000 -0.0000
vn -1.0000 -0.0000 -0.0000
vn -0.0000 -0.0000 -1.0000
vn -0.0000 -0.0000 1.0000
vt 0.625000 0.000000
vt 0.375000 0.250000
vt 0.375000 0.000000
vt 0.625000 0.250000
vt 0.375000 0.500000
vt 0.625000 0.500000
vt 0.375000 0.750000
vt 0.625000 0.750000
vt 0.375000 1.000000
vt 0.125000 0.750000
vt 0.125000 0.500000
vt 0.875000 0.500000
vt 0.625000 1.000000
vt 0.875000 0.750000
s 0
f 64/113/55 65/114/55 63/115/55
f 66/116/56 69/117/56 65/114/56
f 70/118/57 67/119/57 69/117/57
f 68/120/58 63/121/58 67/119/58
f 69/117/59 63/122/59 65/123/59
f 66/124/60 68/120/60 70/118/60
f 64/113/55 66/116/55 65/114/55
f 66/116/56 70/118/56 69/117/56
f 70/118/57 68/120/57 67/119/57
f 68/120/58 64/125/58 63/121/58
f 69/117/59 67/119/59 63/122/59
f 66/124/60 64/126/60 68/120/60
o Ear.L
v -0.274232 -0.861467 3.094393
v -0.274232 -0.861467 4.197552
v 0.274233 -0.861467 3.094393
v 0.274233 -0.861467 4.197552
v -0.274232 -1.407993 3.094393
v -0.274232 -1.407993 4.197552
v 0.274233 -1.407993 3.094393
v 0.274233 -1.407993 4.197552
vn -0.0000 1.0000 -0.0000
vn 1.0000 -0.0000 -0.0000
vn -0.0000 -1.0000 -0.0000
vn -1.0000 -0.0000 -0.0000
vn -0.0000 -0.0000 -1.0000
vn -0.0000 -0.0000 1.0000
vt 0.625000 0.000000
vt 0.375000 0.250000
vt 0.375000 0.000000
vt 0.625000 0.250000
vt 0.375000 0.500000
vt 0.625000 0.500000
vt 0.375000 0.750000
vt 0.625000 0.750000
vt 0.375000 1.000000
vt 0.125000 0.750000
vt 0.125000 0.500000
vt 0.875000 0.500000
vt 0.625000 1.000000
vt 0.875000 0.750000
s 0
f 72/127/61 73/128/61 71/129/61
f 74/130/62 77/131/62 73/128/62
f 78/132/63 75/133/63 77/131/63
f 76/134/64 71/135/64 75/133/64
f 77/131/65 71/136/65 73/137/65
f 74/138/66 76/134/66 78/132/66
f 72/127/61 74/130/61 73/128/61
f 74/130/62 78/132/62 77/131/62
f 78/132/63 76/134/63 75/133/63
f 76/134/64 72/139/64 71/135/64
f 77/131/65 75/133/65 71/136/65
f 74/138/66 72/140/66 76/134/66
